<svg width="14" height="17" viewBox="0 0 14 17" fill="none" xmlns="http://www.w3.org/2000/svg">
<path d="M11.2077 6.25H9.75016V1.66667C9.75016 1.1625 9.33766 0.75 8.8335 0.75H5.16683C4.66266 0.75 4.25016 1.1625 4.25016 1.66667V6.25H2.79266C1.97683 6.25 1.56433 7.24 2.14183 7.8175L6.34933 12.025C6.70683 12.3825 7.28433 12.3825 7.64183 12.025L11.8493 7.8175C12.4268 7.24 12.0235 6.25 11.2077 6.25ZM0.583496 15.4167C0.583496 15.9208 0.995996 16.3333 1.50016 16.3333H12.5002C13.0043 16.3333 13.4168 15.9208 13.4168 15.4167C13.4168 14.9125 13.0043 14.5 12.5002 14.5H1.50016C0.995996 14.5 0.583496 14.9125 0.583496 15.4167Z" fill="#4D4D4D"/>
</svg>
