<svg width="31" height="30" viewBox="0 0 31 30" fill="none" xmlns="http://www.w3.org/2000/svg">
<path fill-rule="evenodd" clip-rule="evenodd" d="M19.616 18.0895H20.6364L26.1131 23.4145C26.6426 23.927 26.6426 24.7645 26.1131 25.277C25.5835 25.7895 24.7181 25.7895 24.1885 25.277L18.6989 19.9645V18.977L18.3501 18.627C16.5418 20.127 14.0747 20.902 11.4526 20.477C7.8618 19.8895 4.9943 16.9895 4.55514 13.4895C3.88347 8.20197 8.4818 3.75197 13.9456 4.40197C17.5622 4.82697 20.5589 7.60197 21.166 11.077C21.6051 13.6145 20.8043 16.002 19.2543 17.752L19.616 18.0895ZM7.07389 12.4645C7.07389 15.577 9.67014 18.0895 12.8864 18.0895C16.1026 18.0895 18.6989 15.577 18.6989 12.4645C18.6989 9.35197 16.1026 6.83947 12.8864 6.83947C9.67014 6.83947 7.07389 9.35197 7.07389 12.4645Z" fill="black" fill-opacity="0.5"/>
</svg>
