<svg width="68" height="50" viewBox="0 0 68 68" fill="none" xmlns="http://www.w3.org/2000/svg">
<path fill-rule="evenodd" clip-rule="evenodd" d="M55.6234 39.236L55.7421 39.2382L55.9083 39.2483L56.0082 39.2585L56.1168 39.2731L56.1856 39.2843L56.3184 39.3102L56.3953 39.3279L56.4912 39.3527L56.5922 39.3823L56.7661 39.4417L56.9019 39.496L57.033 39.5553L57.1195 39.5984L57.2408 39.6643L57.3611 39.7366L57.4262 39.7787L57.5518 39.8662L57.6235 39.9203L57.6922 39.9751L57.7864 40.0553L57.8933 40.1542L57.9946 40.2564L58.0241 40.2879L58.0935 40.3654L58.1905 40.4827L58.2371 40.5431L58.3109 40.6453L58.3572 40.7138L58.4004 40.7813L58.4548 40.8719L58.52 40.9899C58.5399 41.028 58.5593 41.0666 58.5779 41.1057C58.5947 41.1411 58.611 41.1768 58.6266 41.2129C58.6745 41.3237 58.7164 41.4375 58.7521 41.5541C58.764 41.5929 58.7752 41.6321 58.7856 41.6716C58.8186 41.7959 58.8445 41.9232 58.8628 42.0528L58.879 42.1872L58.8837 42.238C58.8891 42.3029 58.8927 42.3683 58.8944 42.4342L58.8954 42.5176V58.7827L58.8941 58.8763L58.8886 58.9967L58.881 59.0928L58.8714 59.1821L58.8607 59.2621C58.8546 59.304 58.8477 59.3457 58.84 59.3871L58.8249 59.4634L58.8018 59.5651L58.779 59.6535C58.7636 59.7096 58.7468 59.7651 58.7286 59.82C58.7124 59.8687 58.6955 59.9158 58.6778 59.962L58.6245 60.0923C58.6017 60.1448 58.5775 60.1967 58.552 60.2477L58.5215 60.3075L58.4581 60.4228L58.4001 60.5194L58.3566 60.5874C58.3258 60.6343 58.2938 60.6803 58.2606 60.7255L58.1634 60.8516L58.0786 60.952L58.0189 61.0181L57.9338 61.1064L57.8151 61.2194L57.7554 61.2722L57.6615 61.3501L57.606 61.3937L57.5558 61.4311L57.5495 61.4359C57.1786 61.8151 56.7113 62.1084 56.1722 62.2732L56.0635 62.3044L35.6166 67.7992C35.4634 67.8403 34.7143 67.9991 34 68C33.2547 68.0009 32.5433 67.8421 32.3834 67.7992L11.9365 62.3044C11.388 62.157 10.9096 61.8781 10.526 61.5106L10.4442 61.4311L10.394 61.3937L10.2847 61.3063L10.1849 61.2194L10.1545 61.1916C10.0946 61.1359 10.0367 61.078 9.9811 61.0181L9.89268 60.9189L9.79968 60.8052L9.78998 60.7927C9.75569 60.7484 9.72251 60.7031 9.69048 60.6571L9.61388 60.5417L9.5419 60.4228L9.51027 60.3666C9.48873 60.3275 9.46792 60.2878 9.44789 60.2476L9.41075 60.1705L9.35638 60.0473L9.34957 60.0308C9.32153 59.9625 9.29573 59.893 9.27224 59.8225L9.24525 59.7375L9.21226 59.6207L9.19195 59.5391C9.18012 59.4889 9.16944 59.4381 9.15995 59.3869C9.15229 59.3457 9.14538 59.304 9.13926 59.2621L9.12495 59.1508L9.11358 59.0277L9.1098 58.9693L9.10591 58.8763L9.1046 58.7827V42.5176C9.1046 42.461 9.10603 42.4047 9.10886 42.3487L9.11213 42.2933L9.12137 42.1833C9.13903 42.0083 9.17039 41.8374 9.21437 41.6716C9.22484 41.6321 9.23604 41.5929 9.24794 41.554C9.28356 41.4375 9.32552 41.3237 9.37337 41.213C9.38903 41.1768 9.40527 41.141 9.42213 41.1056L9.45057 41.0474L9.50591 40.9417L9.56423 40.8394L9.60927 40.7659L9.64283 40.7138L9.71768 40.6047L9.75975 40.5473L9.80295 40.491L9.83964 40.445L9.90655 40.3654L10.0054 40.2564L10.0902 40.1702L10.2137 40.0552L10.3079 39.975L10.4127 39.8926L10.5182 39.8163L10.5738 39.7787L10.6476 39.7311L10.7761 39.6548L10.8805 39.5984L10.9671 39.5553L11.0981 39.496L11.2564 39.4334L11.3865 39.389L11.5087 39.3527L11.6237 39.3233L11.746 39.2969L11.8144 39.2843L11.9265 39.2668L12.0437 39.2528L12.1403 39.2445L12.2579 39.2382L12.3766 39.236L12.4597 39.2371C12.4995 39.2381 12.5391 39.2398 12.5785 39.2422L12.6676 39.2489C12.7449 39.2557 12.8214 39.2652 12.8971 39.2773L13.0293 39.3014L13.1295 39.3233L13.2423 39.3521L13.3374 39.3798L13.439 39.4129L13.5634 39.4586L13.6207 39.4816L13.7633 39.5445L13.9099 39.618L14.0054 39.6709L14.1232 39.7422L14.207 39.7972L14.2838 39.8509L14.3666 39.9125L14.4431 39.9732L14.5218 40.0397L14.6312 40.1394L14.7172 40.2245L14.8318 40.3484L14.9174 40.4499L14.9702 40.5167L15.0699 40.6538L15.1284 40.7417L15.1962 40.8517L15.2662 40.9768L15.2731 40.9899C15.2928 41.0274 15.3119 41.0655 15.3302 41.104L15.357 41.1615L15.4162 41.3007L15.4442 41.3736L15.473 41.4544L15.4809 41.4779C15.5019 41.5409 15.521 41.6049 15.5382 41.6696C15.5689 41.7849 15.5935 41.9028 15.6116 42.0229C15.622 42.0918 15.6302 42.1614 15.6363 42.2317C15.6417 42.2946 15.6453 42.3579 15.6472 42.4217L15.6485 42.5176V56.1455L34 61.0773L52.3515 56.1455V42.5176C52.3515 42.4213 52.3556 42.326 52.3637 42.2319C52.3698 42.1614 52.378 42.0918 52.3884 42.0228C52.4065 41.9028 52.4311 41.7849 52.4618 41.6695C52.479 41.6049 52.4981 41.5409 52.5191 41.4778L52.5351 41.431L52.5558 41.3736L52.6106 41.2354L52.6173 41.2199C52.6341 41.1807 52.6516 41.1421 52.6698 41.1039L52.6978 41.0466L52.764 40.9213L52.8158 40.8315L52.8716 40.7416L52.9457 40.6313L52.9937 40.5646L53.0299 40.5167L53.0826 40.4498L53.1683 40.3483L53.2669 40.241L53.3688 40.1395L53.4017 40.1086L53.4782 40.0397L53.5801 39.9545L53.6723 39.8831L53.7566 39.8222L53.8522 39.758L53.9191 39.7158L54.0249 39.6537L54.1346 39.5947L54.2156 39.5545L54.3225 39.5057L54.3793 39.4816L54.4832 39.4408L54.6034 39.3987L54.69 39.3715L54.831 39.333L54.949 39.3058L54.9903 39.2974C55.1022 39.2754 55.2165 39.2591 55.3324 39.2489L55.4215 39.2422C55.4609 39.2398 55.5005 39.2381 55.5403 39.2371L55.6234 39.236ZM28.6994 46.5132L28.7119 46.5126H39.2882L39.3006 46.5132L39.3409 46.5126L39.3823 46.5133C40.0275 46.5352 40.5439 47.0677 40.5439 47.7215C40.5439 47.8663 40.5186 48.0051 40.4721 48.1338C39.7539 50.9744 37.1923 53.0757 34.1423 53.0757L33.9999 53.0741L33.8577 53.0757C30.8077 53.0757 28.2461 50.9744 27.5279 48.1338C27.4814 48.0051 27.4561 47.8663 27.4561 47.7215C27.4561 47.0677 27.9725 46.5352 28.6177 46.5133L28.6591 46.5126C28.6726 46.5126 28.686 46.5128 28.6994 46.5132ZM43.3891 33.3863C45.8247 33.3863 47.7992 35.3665 47.7992 37.8093C47.7992 40.252 45.8247 42.2323 43.3891 42.2323C40.9535 42.2323 38.9791 40.252 38.9791 37.8093C38.9791 35.3665 40.9535 33.3863 43.3891 33.3863ZM24.8954 33.3863C27.331 33.3863 29.3054 35.3665 29.3054 37.8093C29.3054 40.252 27.331 42.2323 24.8954 42.2323C22.4598 42.2323 20.4854 40.252 20.4854 37.8093C20.4854 35.3665 22.4598 33.3863 24.8954 33.3863ZM34 0L34.0941 0.000849295C36.8791 0.0511691 39.1213 2.33114 39.1213 5.13636C39.1213 5.95908 38.9285 6.73662 38.5856 7.42598C38.3769 7.84571 38.1126 8.23266 37.8024 8.57725L37.7353 8.65031C37.6448 8.74702 37.5507 8.84021 37.453 8.92966L37.379 8.99617C37.2796 9.08374 37.1769 9.16751 37.0709 9.24725L36.991 9.30618L36.9229 9.35458L36.8272 9.41979L36.7439 9.47406L36.6764 9.51638L36.6082 9.55767C36.5843 9.57183 36.5603 9.58584 36.5362 9.59966C36.4041 9.67531 36.2685 9.74519 36.1294 9.80902L36.0374 9.85018L35.984 9.87307C35.8982 9.90928 35.8112 9.9432 35.723 9.97477L35.6602 9.99681L35.565 10.0285L35.5649 14.975L56.4315 20.5829C57.7283 20.9314 58.6332 22.0148 58.8201 23.2666C58.829 23.3076 58.8372 23.3489 58.8446 23.3905C58.864 23.5001 58.8781 23.6114 58.8864 23.7244L58.8936 23.8606L58.8954 23.915V33.3863L58.8944 33.4697C58.8893 33.6717 58.8661 33.8692 58.8263 34.0606C58.8108 34.1346 58.7929 34.2079 58.7726 34.2801C58.7328 34.4212 58.684 34.5583 58.6266 34.6909C58.611 34.7271 58.5947 34.7629 58.5779 34.7983L58.5513 34.8528L58.4912 34.9675L58.4407 35.0561L58.3907 35.138L58.3572 35.1901L58.2823 35.2992L58.2428 35.3532L58.1604 35.4589L58.0935 35.5386L57.9946 35.6475L57.9108 35.7328L57.7977 35.8386L57.6921 35.9289L57.6135 35.9913L57.4818 36.0876L57.4262 36.1253L57.3524 36.1728L57.2239 36.2492L57.1195 36.3055L57.0329 36.3486L56.9433 36.3899L56.8345 36.4358L56.747 36.4693L56.6148 36.5145L56.5137 36.5449L56.3763 36.5806L56.254 36.607L56.1856 36.6196L56.0735 36.6371L55.9563 36.6511L55.8597 36.6594L55.7421 36.6658L55.6234 36.6679L55.5403 36.6668L55.4215 36.6617L55.3324 36.6551C55.2551 36.6482 55.1786 36.6387 55.1029 36.6266L54.9707 36.6026L54.8705 36.5806L54.7577 36.5518L54.6626 36.5241L54.561 36.491L54.4366 36.4453L54.3793 36.4223L54.2367 36.3594L54.0901 36.286L53.9792 36.224L53.8768 36.1617L53.793 36.1067L53.7162 36.053L53.6334 35.9914L53.5569 35.9307L53.4775 35.8636L53.3683 35.7639L53.2828 35.6794L53.1682 35.5555L53.0766 35.4466L53.0267 35.3831L52.9301 35.2501L52.8716 35.1623L52.8003 35.0462L52.7324 34.9244L52.7241 34.9086C52.7054 34.8728 52.6872 34.8366 52.6698 34.7999C52.6516 34.7618 52.6341 34.7232 52.6173 34.6842L52.5961 34.6336L52.5757 34.5828C52.5615 34.5464 52.548 34.5098 52.5351 34.4728C52.5218 34.4349 52.5092 34.3965 52.4972 34.3578C52.4672 34.2606 52.4416 34.1614 52.4206 34.0604C52.3843 33.8864 52.3619 33.7073 52.3543 33.5243L52.3515 33.3863V26.5721L34 21.6406L15.6485 26.5721V33.3863C15.6485 33.6174 15.6247 33.8429 15.5794 34.0604C15.5584 34.1614 15.5328 34.2606 15.5027 34.3579C15.4908 34.3965 15.4782 34.4349 15.4649 34.4729L15.4451 34.528L15.4039 34.6336L15.3827 34.684C15.3659 34.7232 15.3484 34.7618 15.3302 34.8L15.3035 34.8546L15.2404 34.9746L15.1842 35.0724L15.1284 35.1623L15.0543 35.2727L15.0105 35.3335L14.9733 35.3831L14.9116 35.4612L14.8317 35.5556L14.7331 35.6629L14.6317 35.7639L14.5997 35.7941L14.5225 35.8636L14.3907 35.9726L14.306 36.0369L14.207 36.1067L14.0996 36.1765L14.0415 36.2119L13.9275 36.2765L13.8325 36.3259L13.7166 36.3809L13.6775 36.3983L13.6207 36.4223L13.5168 36.4631L13.3966 36.5053L13.31 36.5324L13.169 36.571L13.051 36.5981L13.0097 36.6065C12.8978 36.6285 12.7835 36.6448 12.6676 36.6551L12.5437 36.6637L12.4597 36.6668L12.3766 36.6679L12.2579 36.6658L12.0917 36.6556L11.9918 36.6454L11.8832 36.6308L11.8144 36.6196L11.6816 36.5937L11.6047 36.576L11.5088 36.5512L11.3851 36.5145L11.2339 36.4622L11.0981 36.4079L10.967 36.3486L10.8805 36.3055L10.7592 36.2396L10.6389 36.1674L10.5738 36.1253L10.4482 36.0377L10.3765 35.9836L10.3078 35.9288L10.1909 35.8284L10.0892 35.7328L10.0054 35.6475L9.97587 35.616L9.90653 35.5385L9.79782 35.4064L9.75726 35.3532L9.68907 35.2586L9.64282 35.1901L9.58297 35.0956L9.52099 34.9895L9.47617 34.9066C9.45755 34.871 9.43951 34.8348 9.42212 34.7983C9.40527 34.7629 9.38903 34.7271 9.37342 34.691C9.31604 34.5583 9.26718 34.4212 9.22748 34.2803C9.2071 34.2079 9.18916 34.1346 9.17371 34.0604C9.13389 33.8692 9.11066 33.6717 9.10564 33.4697L9.1046 33.3863V23.9142L9.10719 23.8381C9.11318 23.6859 9.12947 23.5366 9.15539 23.3906L9.16884 23.3194L9.17992 23.2666C9.36263 22.0426 10.2318 20.9797 11.4826 20.6072L11.5685 20.5829L32.4351 14.975L32.435 10.0285L32.403 10.0181C32.3607 10.0042 32.3187 9.98973 32.277 9.97477C32.1888 9.9432 32.1018 9.90928 32.016 9.87307L31.9626 9.85018L31.8706 9.80902C31.7315 9.74519 31.5959 9.67531 31.4639 9.5997L31.3918 9.55762C31.3461 9.53049 31.3009 9.50261 31.2561 9.47406L31.146 9.40182C31.0998 9.37071 31.0541 9.3388 31.009 9.30618L30.9291 9.24725C30.8231 9.16751 30.7204 9.08374 30.621 8.99617L30.547 8.92966C30.4494 8.84021 30.3552 8.74702 30.2647 8.65031L30.1976 8.57725C29.8874 8.23266 29.6231 7.84571 29.4144 7.42608C29.0715 6.73662 28.8787 5.95908 28.8787 5.13636C28.8787 2.29962 31.1716 0 34 0ZM64.728 32.9583L64.8112 32.9593C66.5517 33.0029 67.9548 34.4096 67.9989 36.1551L68 36.2398V39.3787C68 41.1632 66.5798 42.615 64.8112 42.6592L64.728 42.6603C62.921 42.6603 61.4561 41.1911 61.4561 39.3787V36.2398C61.4561 34.4275 62.921 32.9583 64.728 32.9583ZM3.27197 42.6603C1.46491 42.6603 0 41.1911 0 39.3787V36.2398C0 34.4275 1.46491 32.9583 3.27197 32.9583L3.35512 32.9593C5.09568 33.0029 6.49876 34.4096 6.54286 36.1551L6.54393 36.2398V39.3787C6.54393 41.1632 5.12375 42.615 3.35512 42.6592L3.27197 42.6603Z" fill="url(#paint0_radial_202_1230)"/>
<defs>
<radialGradient id="paint0_radial_202_1230" cx="0" cy="0" r="1" gradientUnits="userSpaceOnUse" gradientTransform="translate(34 34) rotate(155.787) scale(37.2796)">
<stop stop-color="#0094FF"/>
<stop offset="1" stop-color="#FF00FE"/>
</radialGradient>
</defs>
</svg>
